<?xml version="1.0" encoding="UTF-8"?>
<svg width="48" height="48" viewBox="0 0 48 48" fill="none" xmlns="http://www.w3.org/2000/svg">
  <!-- Autominds Logo: Abstract Neural/Geometric Mark -->
  <defs>
    <linearGradient id="logoGradient" x1="0%" y1="0%" x2="100%" y2="100%">
      <stop offset="0%" style="stop-color:#8B5CF6"/>
      <stop offset="100%" style="stop-color:#3B82F6"/>
    </linearGradient>
  </defs>
  <!-- Outer hexagon -->
  <path d="M24 4L42 14V34L24 44L6 34V14L24 4Z" stroke="url(#logoGradient)" stroke-width="2" fill="none" opacity="0.6"/>
  <!-- Inner neural core -->
  <circle cx="24" cy="24" r="8" fill="url(#logoGradient)"/>
  <!-- Connection nodes -->
  <circle cx="24" cy="10" r="3" fill="url(#logoGradient)" opacity="0.8"/>
  <circle cx="36" cy="17" r="3" fill="url(#logoGradient)" opacity="0.8"/>
  <circle cx="36" cy="31" r="3" fill="url(#logoGradient)" opacity="0.8"/>
  <circle cx="24" cy="38" r="3" fill="url(#logoGradient)" opacity="0.8"/>
  <circle cx="12" cy="31" r="3" fill="url(#logoGradient)" opacity="0.8"/>
  <circle cx="12" cy="17" r="3" fill="url(#logoGradient)" opacity="0.8"/>
  <!-- Neural connections -->
  <line x1="24" y1="16" x2="24" y2="10" stroke="url(#logoGradient)" stroke-width="1.5" opacity="0.5"/>
  <line x1="30" y1="20" x2="36" y2="17" stroke="url(#logoGradient)" stroke-width="1.5" opacity="0.5"/>
  <line x1="30" y1="28" x2="36" y2="31" stroke="url(#logoGradient)" stroke-width="1.5" opacity="0.5"/>
  <line x1="24" y1="32" x2="24" y2="38" stroke="url(#logoGradient)" stroke-width="1.5" opacity="0.5"/>
  <line x1="18" y1="28" x2="12" y2="31" stroke="url(#logoGradient)" stroke-width="1.5" opacity="0.5"/>
  <line x1="18" y1="20" x2="12" y2="17" stroke="url(#logoGradient)" stroke-width="1.5" opacity="0.5"/>
</svg>
